# xmcd
#
# Track frame offsets:
#        150
#        21225
#        31435
#        51800
#        67212
#        83207
#        100082
#        118957
#        136475
#        150210
#        168915
#        188667
#
# Disc length: 2700 seconds
#
# Revision: 2
# Processed by: cddbd v1.5.1PL0 Copyright (c) Steve Scherf et al.
# Submitted via: ExactAudioCopy v0.95a5
#
DISCID=9c0a8a0c
DTITLE=Ghostface Killah - Shaolin's Finest
DYEAR=2003
DGENRE=Hip-Hop
TTITLE0=Daytona 500 - (feat. Raekwon and Cappadonna)
TTITLE1=Poisonous Darts
TTITLE2=Camay - (feat. Raejwib and Cappadonna)
TTITLE3=All That I Got Is You - (feat. Tekitha)
TTITLE4=Child's Play
TTITLE5=One
TTITLE6=Malcolm
TTITLE7=Apollo Kids - (feat. Raekwon)
TTITLE8=Cherchez La Ghost - (feat. U-God)
TTITLE9=Ghost Showers
TTITLE10=Never Be The Same Again - (feat. Carl Thomas and Raekwon)
TTITLE11=Strawberry - (feat. Killah Sin)
EXTD=
EXTT0=
EXTT1=
EXTT2=
EXTT3=
EXTT4=
EXTT5=
EXTT6=
EXTT7=
EXTT8=
EXTT9=
EXTT10=
EXTT11=
PLAYORDER=
